<mxfile host="app.diagrams.net" modified="2023-01-17T07:07:37.418Z" agent="5.0 (Windows NT 10.0; Win64; x64) AppleWebKit/537.36 (KHTML, like Gecko) Chrome/109.0.0.0 Safari/537.36" version="20.8.5" etag="XEt0xJfkvMR2KdcipcRl" type="github">
  <diagram id="lI4BgrIZTb4HIJQqaTyI" name="ページ1">
    <mxGraphModel dx="1434" dy="731" grid="1" gridSize="10" guides="1" tooltips="1" connect="1" arrows="1" fold="1" page="1" pageScale="1" pageWidth="827" pageHeight="1169" math="0" shadow="0">
      <root>
        <mxCell id="0" />
        <mxCell id="1" parent="0" />
        <mxCell id="EdhIGiwtXLYldp7msiqc-5" value="" style="edgeStyle=orthogonalEdgeStyle;rounded=0;orthogonalLoop=1;jettySize=auto;html=1;fontSize=20;" edge="1" parent="1" source="EdhIGiwtXLYldp7msiqc-1" target="EdhIGiwtXLYldp7msiqc-3">
          <mxGeometry relative="1" as="geometry" />
        </mxCell>
        <mxCell id="EdhIGiwtXLYldp7msiqc-1" value="&lt;font style=&quot;font-size: 20px;&quot;&gt;Start(1)&lt;/font&gt;" style="rounded=0;whiteSpace=wrap;html=1;" vertex="1" parent="1">
          <mxGeometry x="320" y="160" width="120" height="40" as="geometry" />
        </mxCell>
        <mxCell id="EdhIGiwtXLYldp7msiqc-7" value="" style="edgeStyle=orthogonalEdgeStyle;rounded=0;orthogonalLoop=1;jettySize=auto;html=1;fontSize=20;" edge="1" parent="1" source="EdhIGiwtXLYldp7msiqc-2" target="EdhIGiwtXLYldp7msiqc-4">
          <mxGeometry relative="1" as="geometry" />
        </mxCell>
        <mxCell id="EdhIGiwtXLYldp7msiqc-2" value="&lt;font style=&quot;font-size: 20px;&quot;&gt;Pass2to1(1)&lt;/font&gt;" style="rounded=0;whiteSpace=wrap;html=1;" vertex="1" parent="1">
          <mxGeometry x="320" y="320" width="120" height="40" as="geometry" />
        </mxCell>
        <mxCell id="EdhIGiwtXLYldp7msiqc-6" value="" style="edgeStyle=orthogonalEdgeStyle;rounded=0;orthogonalLoop=1;jettySize=auto;html=1;fontSize=20;" edge="1" parent="1" source="EdhIGiwtXLYldp7msiqc-3" target="EdhIGiwtXLYldp7msiqc-2">
          <mxGeometry relative="1" as="geometry" />
        </mxCell>
        <mxCell id="EdhIGiwtXLYldp7msiqc-3" value="&lt;font style=&quot;font-size: 20px;&quot;&gt;Pass1to2(1)&lt;/font&gt;" style="rounded=0;whiteSpace=wrap;html=1;" vertex="1" parent="1">
          <mxGeometry x="320" y="240" width="120" height="40" as="geometry" />
        </mxCell>
        <mxCell id="EdhIGiwtXLYldp7msiqc-4" value="&lt;font style=&quot;font-size: 20px;&quot;&gt;Pass1to2(1)&lt;/font&gt;" style="rounded=0;whiteSpace=wrap;html=1;" vertex="1" parent="1">
          <mxGeometry x="320" y="400" width="120" height="40" as="geometry" />
        </mxCell>
      </root>
    </mxGraphModel>
  </diagram>
</mxfile>
